name analog
datacolumns 19
datarows 46
range 0.188 0.2105
endheader
time	ground_force_vx	ground_force_vy	ground_force_vz	ground_force_px	ground_force_py	ground_force_pz	l_ground_force_vx	l_ground_force_vy	l_ground_force_vz	l_ground_force_px	l_ground_force_py	l_ground_force_pz	ground_torque_x	ground_torque_y	ground_torque_z	l_ground_torque_x	l_ground_torque_y	l_ground_torque_z
0.188	-0.0	-0.0	-0.0	-9.55269718170166	5.772984981536865	-95.33018493652344	7.070000171661377	-19.17973899841309	-406.9224548339844	-0.0	-0.0	-0.0	-0.0	-0.0	-0.0	116930.8046875	15869.751953125	1700.177490234375
0.1885	-0.0	-0.0	-0.0	-9.23672580718994	5.663215637207031	-96.5811004638672	7.294391632080078	-18.316740036010746	-408.6951904296875	-0.0	-0.0	-0.0	-0.0	-0.0	-0.0	117183.84375	15484.30859375	1682.2886962890625
0.189	-0.0	-0.0	-0.0	-9.497610092163086	5.361840724945068	-97.66735076904295	7.362995147705078	-17.935720443725586	-409.0437927246094	-0.0	-0.0	-0.0	-0.0	-0.0	-0.0	117188.6953125	15269.0712890625	1869.515380859375
0.1895	-0.0	-0.0	-0.0	-9.25716781616211	6.162604808807373	-97.5597152709961	7.744619846343994	-17.46714210510254	-408.0528259277344	-0.0	-0.0	-0.0	-0.0	-0.0	-0.0	117461.6171875	15396.90625	2132.031982421875
0.19	-0.0	-0.0	-0.0	-9.367103576660156	6.182861328125	-100.51563262939452	8.338813781738281	-16.984235763549805	-410.04388427734375	-0.0	-0.0	-0.0	-0.0	-0.0	-0.0	117486.9921875	15042.421875	2233.34375
0.1905	-0.0	-0.0	-0.0	-9.340487480163574	6.149997711181641	-100.07806396484376	8.693656921386719	-16.34507179260254	-409.82220458984375	-0.0	-0.0	-0.0	-0.0	-0.0	-0.0	117412.25	14943.390625	2396.001953125
0.191	-0.0	-0.0	-0.0	-10.017963409423828	6.396466255187988	-99.92835998535156	9.095495223999023	-16.433090209960938	-407.8704223632813	-0.0	-0.0	-0.0	-0.0	-0.0	-0.0	117435.5078125	14612.3701171875	2441.720703125
0.1915	-0.0	-0.0	-0.0	-10.059782028198242	6.842053890228272	-100.32363891601562	9.450209617614746	-15.851242065429688	-407.1733703613281	-0.0	-0.0	-0.0	-0.0	-0.0	-0.0	117111.515625	14382.0634765625	2592.141845703125
0.192	-0.0	-0.0	-0.0	-10.038620948791504	6.684780120849609	-99.866455078125	9.492053985595703	-15.944411277770996	-405.8980712890625	-0.0	-0.0	-0.0	-0.0	-0.0	-0.0	116983.5625	14048.890625	2560.830078125
0.1925	-0.0	-0.0	-0.0	-10.000739097595217	6.748195171356201	-100.45248413085938	10.07530403137207	-15.254270553588867	-404.7670593261719	-0.0	-0.0	-0.0	-0.0	-0.0	-0.0	116482.3046875	13937.0185546875	2777.61767578125
0.193	-0.0	-0.0	-0.0	-9.770712852478027	7.31301212310791	-100.11795043945312	10.244013786315918	-14.92636489868164	-404.234375	-0.0	-0.0	-0.0	-0.0	-0.0	-0.0	116363.078125	13569.5	2776.385986328125
0.1935	-0.0	-0.0	-0.0	-9.944965362548828	7.622654438018799	-101.61560821533205	10.467872619628906	-14.77084255218506	-404.2340698242188	-0.0	-0.0	-0.0	-0.0	-0.0	-0.0	116253.9609375	13290.966796875	2888.19873046875
0.194	-0.0	-0.0	-0.0	-9.659854888916016	7.597428798675537	-100.5419692993164	10.808635711669922	-14.417619705200195	-403.3538818359375	-0.0	-0.0	-0.0	-0.0	-0.0	-0.0	116365.8828125	12983.697265625	3127.06787109375
0.1945	-0.0	-0.0	-0.0	-9.652717590332031	8.135738372802734	-101.20657348632812	10.75535774230957	-14.244336128234863	-404.3886413574219	-0.0	-0.0	-0.0	-0.0	-0.0	-0.0	116272.7265625	12839.26953125	3034.69580078125
0.195	-0.0	-0.0	-0.0	-9.188682556152344	7.975597858428955	-100.8266372680664	10.776862144470217	-14.28976058959961	-404.666748046875	-0.0	-0.0	-0.0	-0.0	-0.0	-0.0	116840.1484375	12826.6279296875	3371.404052734375
0.1955	-0.0	-0.0	-0.0	-8.921051025390625	8.670097351074219	-98.42887878417967	11.223283767700195	-13.620211601257324	-404.8359375	-0.0	-0.0	-0.0	-0.0	-0.0	-0.0	116721.1484375	12662.828125	3325.97900390625
0.196	-0.0	-0.0	-0.0	-9.145367622375488	8.424112319946289	-97.55318450927734	11.17755889892578	-13.202881813049316	-406.32757568359375	-0.0	-0.0	-0.0	-0.0	-0.0	-0.0	117029.046875	12588.4130859375	3400.721923828125
0.1965	-0.0	-0.0	-0.0	-8.744915008544922	8.554235458374023	-97.64972686767578	11.134271621704102	-13.114706993103027	-406.9320373535156	-0.0	-0.0	-0.0	-0.0	-0.0	-0.0	117518.765625	12631.5537109375	3498.421142578125
0.197	-0.0	-0.0	-0.0	-8.4293794631958	8.419785499572754	-96.86561584472656	11.44369125366211	-13.360058784484863	-408.5148010253906	-0.0	-0.0	-0.0	-0.0	-0.0	-0.0	118046.7890625	12633.3876953125	3445.77392578125
0.1975	-0.0	-0.0	-0.0	-8.232674598693848	9.00560188293457	-95.79835510253906	11.865460395812988	-12.916655540466309	-409.2852783203125	-0.0	-0.0	-0.0	-0.0	-0.0	-0.0	118417.4140625	12598.6318359375	3468.56591796875
0.198	-0.0	-0.0	-0.0	-7.606290817260742	8.645648956298828	-93.94586181640624	11.843547821044922	-12.78620147705078	-411.12347412109375	-0.0	-0.0	-0.0	-0.0	-0.0	-0.0	118791.25	12801.837890625	3735.978515625
0.1985	-0.0	-0.0	-0.0	-7.537708282470703	8.579669952392578	-91.47360229492188	12.419509887695312	-13.026942253112791	-413.13665771484375	-0.0	-0.0	-0.0	-0.0	-0.0	-0.0	119217.484375	12790.205078125	3802.52099609375
0.199	-0.0	-0.0	-0.0	-7.449504375457764	8.514084815979004	-89.7043228149414	12.68564224243164	-12.98257827758789	-415.0574951171875	-0.0	-0.0	-0.0	-0.0	-0.0	-0.0	119843.421875	12922.0712890625	3817.434326171875
0.1995	-0.0	-0.0	-0.0	-6.668039321899414	8.044465065002441	-86.61679077148438	12.574868202209473	-12.210359573364258	-416.6247253417969	-0.0	-0.0	-0.0	-0.0	-0.0	-0.0	120462.5234375	13119.203125	4025.3955078125
0.2	-0.0	-0.0	-0.0	-6.668842792510986	7.643003463745117	-85.20550537109375	12.752212524414062	-12.011601448059082	-419.1562194824219	-0.0	-0.0	-0.0	-0.0	-0.0	-0.0	121592.1171875	13507.771484375	3921.621826171875
0.2005	-0.0	-0.0	-0.0	-6.133208274841309	7.219562530517578	-79.90701293945312	12.8851318359375	-12.011895179748535	-423.9557800292969	-0.0	-0.0	-0.0	-0.0	-0.0	-0.0	122272.296875	13850.8525390625	3936.524658203125
0.201	-0.0	-0.0	-0.0	-5.598161697387695	6.640080451965332	-75.9326171875	12.529692649841309	-12.10007095336914	-428.31976318359375	-0.0	-0.0	-0.0	-0.0	-0.0	-0.0	123220.8828125	14108.462890625	3921.490966796875
0.2015	-0.0	-0.0	-0.0	-5.397525310516357	6.173003196716309	-72.3176040649414	12.175732612609863	-11.99020004272461	-430.0668029785156	-0.0	-0.0	-0.0	-0.0	-0.0	-0.0	124172.9921875	14423.6572265625	3832.037109375
0.202	-0.0	-0.0	-0.0	-5.01830005645752	5.726001739501953	-68.60602569580078	12.04128074645996	-11.812785148620604	-434.0837097167969	-0.0	-0.0	-0.0	-0.0	-0.0	-0.0	125206.1953125	14708.021484375	3698.89794921875
0.2025	-0.0	-0.0	-0.0	-4.617496013641357	4.568216800689697	-62.86602783203125	11.29002857208252	-11.614931106567385	-437.0492858886719	-0.0	-0.0	-0.0	-0.0	-0.0	-0.0	126204.3671875	15220.1865234375	3542.62158203125
0.203	-0.0	-0.0	-0.0	-4.729599475860596	3.859573364257813	-58.08953475952149	11.198558807373049	-11.44000244140625	-440.3690490722656	-0.0	-0.0	-0.0	-0.0	-0.0	-0.0	127317.0625	15521.6328125	3572.290771484375
0.20350000000000001	-0.0	-0.0	-0.0	-4.682701587677002	3.6736559867858887	-52.89374542236328	10.601852416992188	-11.89907455444336	-442.9771423339844	-0.0	-0.0	-0.0	-0.0	-0.0	-0.0	128022.3515625	16011.6943359375	3563.591796875
0.20400000000000001	-0.0	-0.0	-0.0	-4.902557849884033	2.8729493618011475	-49.60984420776367	10.42458438873291	-12.10007095336914	-444.4700317382813	-0.0	-0.0	-0.0	-0.0	-0.0	-0.0	128432.0859375	16615.029296875	3379.16015625
0.20450000000000002	-0.0	-0.0	-0.0	-4.725850582122803	2.2693686485290527	-44.853851318359375	9.6922607421875	-12.584630966186523	-445.2579956054688	-0.0	-0.0	-0.0	-0.0	-0.0	-0.0	129117.921875	16749.39453125	3163.322998046875
0.20500000000000002	-0.0	-0.0	-0.0	-4.463089942932129	1.5610631704330444	-42.28060531616211	9.446355819702148	-12.122819900512695	-447.7710876464844	-0.0	-0.0	-0.0	-0.0	-0.0	-0.0	129507.1875	17258.3515625	3008.24560546875
0.20550000000000002	-0.0	-0.0	-0.0	-4.99291467666626	0.9603054523468018	-40.69545364379883	8.805294036865234	-11.87777614593506	-447.431884765625	-0.0	-0.0	-0.0	-0.0	-0.0	-0.0	129740.359375	17485.5234375	2932.31884765625
0.20600000000000002	-0.0	-0.0	-0.0	-5.617130756378174	1.0465000867843628	-39.37336349487305	8.473505020141602	-11.877649307250977	-448.4788818359375	-0.0	-0.0	-0.0	-0.0	-0.0	-0.0	130437.8046875	17816.517578125	2880.42138671875
0.20650000000000002	-0.0	-0.0	-0.0	-5.488162040710449	0.2939591705799103	-38.23512268066406	8.558816909790039	-11.151495933532717	-449.6165161132813	-0.0	-0.0	-0.0	-0.0	-0.0	-0.0	130970.3984375	18006.560546875	2792.86083984375
0.20700000000000002	-0.0	-0.0	-0.0	-5.775445938110352	0.0659142434597015	-35.255592346191406	8.55481243133545	-10.909646034240724	-451.6959533691406	-0.0	-0.0	-0.0	-0.0	-0.0	-0.0	131652.8125	18446.65234375	2857.5107421875
0.20750000000000002	-0.0	-0.0	-0.0	-5.934498310089111	-0.5227973461151123	-35.39441680908203	8.095887184143066	-10.25350284576416	-454.2300720214844	-0.0	-0.0	-0.0	-0.0	-0.0	-0.0	132278.359375	18563.3046875	2776.0537109375
0.20800000000000002	-0.0	-0.0	-0.0	-6.799070358276367	-0.572891116142273	-34.85519790649414	7.582562446594238	-9.566322326660156	-456.1010437011719	-0.0	-0.0	-0.0	-0.0	-0.0	-0.0	133148.421875	18917.556640625	2732.0546875
0.2085	-0.0	-0.0	-0.0	-6.89266300201416	-0.586248517036438	-32.1576042175293	7.610485553741455	-9.162201881408691	-458.6013488769531	-0.0	-0.0	-0.0	-0.0	-0.0	-0.0	133954.609375	19082.029296875	2611.9443359375
0.209	-0.0	-0.0	-0.0	-6.93976354598999	-0.8815884590148926	-32.54716491699219	7.316154479980469	-8.762215614318848	-461.5980224609375	-0.0	-0.0	-0.0	-0.0	-0.0	-0.0	134959.65625	19599.03125	2429.25927734375
0.2095	-0.0	-0.0	-0.0	-6.766746520996094	-1.027583122253418	-30.96594619750977	6.671527862548828	-8.897095680236816	-464.7925109863281	-0.0	-0.0	-0.0	-0.0	-0.0	-0.0	136470.296875	19870.26171875	2355.566162109375
0.21	-0.0	-0.0	-0.0	-7.071290493011475	-1.0277119874954224	-29.29243850708008	6.475887298583984	-8.985353469848633	-467.6994934082031	-0.0	-0.0	-0.0	-0.0	-0.0	-0.0	137300.34375	20282.71484375	2241.032958984375
0.2105	-0.0	-0.0	-0.0	-6.441161632537842	-1.0164114236831665	-29.21996688842773	5.570977210998535	-9.267969131469728	-471.5878601074219	-0.0	-0.0	-0.0	-0.0	-0.0	-0.0	138260.40625	20423.58203125	2056.330322265625
